<?xml version="1.0" encoding="utf-8"?>
<!-- Generator: Adobe Illustrator 24.0.2, SVG Export Plug-In . SVG Version: 6.00 Build 0)  -->
<svg version="1.1" id="Livello_1" xmlns="http://www.w3.org/2000/svg" xmlns:xlink="http://www.w3.org/1999/xlink" x="0px" y="0px"
	 viewBox="0 0 266.97 137.78" style="enable-background:new 0 0 266.97 137.78;" xml:space="preserve">
<style type="text/css">
	.st0{fill:#3B3223;}
	.st1{fill:#C7C4C3;}
</style>
<rect x="2.62" y="39.39" class="st0" width="261.73" height="62.81"/>
<path class="st1" d="M266.97,104.82H0V36.78h266.97V104.82z M5.23,99.59h256.5V42.01H5.23V99.59z M57.55,81.93h-7.13V59.58h6.97
	c5.4,0,6.31,4.18,6.31,6.25v0.38c0,1.32-0.79,3.2-2.26,4.18c1.57,1,2.54,2.79,2.54,4.49v0.72C63.98,77.63,62.91,81.93,57.55,81.93z
	 M59.59,65.86c0-2.01-1.41-2.23-2.26-2.23H54.5v4.8h3.01c0.91,0,2.07-0.31,2.07-2.29V65.86z M59.96,74.89
	c0-2.07-1.35-2.45-2.32-2.45H54.5v5.4h2.98c0.88,0,2.48-0.28,2.48-2.32V74.89z M70.39,81.93V59.58h12.93v4.05h-8.88v4.52h8.22v4.05
	h-8.22v5.68h8.88v4.05H70.39z M89.25,81.93V59.58h12.93v4.05H93.3v4.52h8.22v4.05H93.3v5.68h8.88v4.05H89.25z M118.07,81.93
	l-4.05-8.63h-1.82v8.63h-4.08V59.58h7c5.43,0,6.5,4.3,6.5,6.34v0.97c0,1.6-0.6,4.49-3.36,5.81l4.39,9.23H118.07z M117.5,66.01
	c0-2.07-1.57-2.38-2.45-2.38h-2.86v5.62h2.92c0.88,0,2.38-0.28,2.38-2.39V66.01z M133.99,82.21c-4.18,0-6.88-3.04-6.88-7.06h4.05
	c0,1.95,1.19,3.01,2.79,3.01c1.88,0,3.08-1.03,3.08-2.48c0-1.13-0.66-1.85-1.54-2.36c-0.85-0.5-2.35-1.26-4.83-2.51
	c-1.82-0.91-3.2-2.98-3.2-5.34c0-3.58,2.7-6.09,6.56-6.09c4.02,0,6.78,2.92,6.78,6.91h-4.11c0-1.85-1.13-2.89-2.67-2.89
	c-1.38,0-2.51,0.75-2.51,2.13c0,0.75,0.47,1.38,1.32,1.82c2.7,1.38,3.73,1.88,4.58,2.35c2.39,1.29,3.64,3.39,3.64,6.03
	C141.05,79.48,137.97,82.21,133.99,82.21z M154.36,63.66v18.27h-4.05V63.66h-4.99v-4.08h14.06v4.08H154.36z M174.51,81.93
	l-4.05-8.63h-1.82v8.63h-4.08V59.58h7c5.43,0,6.5,4.3,6.5,6.34v0.97c0,1.6-0.6,4.49-3.36,5.81l4.39,9.23H174.51z M173.95,66.01
	c0-2.07-1.57-2.38-2.45-2.38h-2.86v5.62h2.92c0.88,0,2.39-0.28,2.39-2.39V66.01z M190.87,82.21c-5.24,0-6.72-4.36-6.72-6.5v-9.98
	c0-2.07,1.35-6.31,6.75-6.31c5.18,0,6.72,4.24,6.72,6.34v9.98C197.62,77.88,196.21,82.21,190.87,82.21z M193.51,65.79
	c0-2.07-1.79-2.35-2.6-2.35c-0.88,0-2.7,0.28-2.7,2.35v9.92c0,2.1,1.82,2.42,2.7,2.42c0.81,0,2.6-0.31,2.6-2.42V65.79z
	 M211.53,63.66v18.27h-4.05V63.66h-4.99v-4.08h14.06v4.08H211.53z"/>
<path d="M261.73,42.01v1.05H6.28v56.54H5.23V42.01H261.73z M84.36,60.62h-1.04v3h-8.88v4.52h1.04v-3.48h8.88V60.62z M103.23,82.97
	H90.3v-1.04h11.89v-3.01h1.04V82.97z M103.23,64.67h-8.88v3.48H93.3v-4.52h8.88v-3h1.04V64.67z M93.3,72.2h8.22v-3.01h1.05v4.05
	h-8.23v4.64H93.3V72.2z M113.25,82.97h-4.08v-1.04h3.04v-8.63h1.82l0.49,1.04h-1.26V82.97z M119.3,73.74l4.39,9.23h-4.58l-0.49-1.04
	h4.03l-4.39-9.23c2.76-1.32,3.36-4.21,3.36-5.81v-0.97c0-1.04-0.29-2.66-1.28-4.01c1.84,1.43,2.33,3.72,2.33,5.05v0.97
	C122.66,69.54,122.06,72.43,119.3,73.74z M74.43,72.2h8.22v-3.01h1.05v4.05h-8.22v4.64h-1.04V72.2z M59.41,64.83
	c-0.36-0.13-0.73-0.16-1.04-0.16h-2.83v3.76H54.5v-4.8h2.82C58,63.63,59.01,63.78,59.41,64.83z M54.5,72.45h3.14
	c0.74,0,1.69,0.22,2.11,1.24c-0.35-0.14-0.73-0.19-1.06-0.19h-3.14v4.35H54.5V72.45z M58.59,82.97h-7.13v-1.04h6.08
	c5.37,0,6.43-4.3,6.43-6.34v-0.72c0-1.11-0.45-2.23-1.17-3.17c1.36,1.03,2.22,2.65,2.22,4.22v0.72
	C65.03,78.67,63.96,82.97,58.59,82.97z M84.36,82.97H71.43v-1.04h11.89v-3.01h1.04V82.97z M117.29,64.89
	c-0.41-0.17-0.85-0.22-1.19-0.22h-2.86v4.58h-1.05v-5.62h2.86C115.74,63.63,116.83,63.83,117.29,64.89z M64.74,66.87v0.38
	c0,1.29-0.76,3.12-2.18,4.11c-0.33-0.37-0.7-0.71-1.12-0.97c1.48-0.97,2.26-2.86,2.26-4.18v-0.38c0-1.07-0.25-2.71-1.24-4.04
	C64.33,63.18,64.74,65.49,64.74,66.87z M212.57,82.97h-4.05v-1.04h3V63.66h5.02v-3.04h1.05v4.08h-5.02V82.97z M136.33,64.75
	c-0.37-0.19-0.8-0.3-1.27-0.3c-1.38,0-2.51,0.75-2.51,2.13c0,0.26,0.07,0.49,0.18,0.71c-0.78-0.43-1.23-1.04-1.23-1.76
	c0-1.38,1.13-2.13,2.51-2.13C135.05,63.41,135.89,63.88,136.33,64.75z M173.73,64.89c-0.41-0.18-0.85-0.22-1.19-0.22h-2.86v4.58
	h-1.05v-5.62h2.86C172.18,63.63,173.28,63.83,173.73,64.89z M169.69,82.97h-4.08v-1.04h3.04v-8.63h1.82l0.49,1.04h-1.27V82.97z
	 M175.75,73.74l4.4,9.23h-4.58l-0.49-1.04h4.03l-4.39-9.23c2.76-1.32,3.36-4.21,3.36-5.81v-0.97c0-1.04-0.29-2.66-1.28-4.01
	c1.84,1.43,2.32,3.72,2.32,5.05v0.97C179.11,69.54,178.51,72.43,175.75,73.74z M207.48,64.7h-3.95v-1.04h3.95V64.7z M186.62,80.83
	c1.01,0.81,2.38,1.38,4.25,1.38c5.34,0,6.75-4.33,6.75-6.47v-9.98c0-1.04-0.38-2.61-1.4-3.93c1.8,1.42,2.44,3.63,2.44,4.97v9.98
	c0,2.13-1.41,6.46-6.75,6.46C189.31,83.25,187.64,82.18,186.62,80.83z M193.29,64.76c-0.48-0.21-1-0.28-1.35-0.28
	c-0.88,0-2.7,0.28-2.7,2.36v9.92c0,0.44,0.09,0.78,0.22,1.07c-0.67-0.31-1.27-0.92-1.27-2.12v-9.92c0-2.07,1.82-2.35,2.7-2.35
	C191.55,63.44,192.81,63.63,193.29,64.76z M131.31,76.19h0.9c0,0.65,0.14,1.2,0.38,1.64C131.98,77.51,131.52,76.96,131.31,76.19z
	 M129.69,80.79c1.13,0.88,2.58,1.41,4.29,1.41c3.99,0,7.06-2.73,7.06-6.47c0-1.6-0.47-3.01-1.37-4.15c1.58,1.28,2.42,3.06,2.42,5.2
	c0,3.73-3.08,6.46-7.06,6.46C132.73,83.25,130.89,82.3,129.69,80.79z M129.8,70.26c0.27,0.21,0.56,0.4,0.86,0.56
	c2.48,1.25,3.99,2.01,4.83,2.51c0.51,0.29,0.93,0.67,1.21,1.15c-0.06-0.03-0.1-0.08-0.16-0.11c-0.85-0.5-2.36-1.26-4.83-2.51
	C130.98,71.49,130.32,70.94,129.8,70.26z M155.4,82.97h-4.05v-1.04h3V63.66h5.02v-3.04h1.05v4.08h-5.02V82.97z M141.84,67.34h-4.11
	c0-0.39-0.06-0.73-0.15-1.04h3.22c0-1.75-0.56-3.27-1.49-4.45C140.88,63.08,141.84,65.02,141.84,67.34z M150.31,64.7h-3.94v-1.04
	h3.94V64.7z"/>
<path class="st0" d="M219.14,29.12H47.83v-1.85h171.31V29.12z M219.14,25.88H47.83v0.52h171.31V25.88z M219.14,112.48H47.83v1.85
	h171.31V112.48z M219.14,115.2H47.83v0.52h171.31V115.2z M85.27,14.95c3.04,0,4.78-1.51,5.63-2.7c0.13-0.17,0.18-0.35,0.18-0.5
	c0-0.41-0.41-0.81-0.83-0.81c-0.18,0-0.39,0.07-0.53,0.22C89,11.89,88,12.73,85.55,12.73c-2.22,0-4.19-1.23-4.19-4.58
	c0-3.97,2.34-5.79,4.13-5.79c1.48,0,1.85,0.63,1.85,1.4c0,0.55-0.37,0.85-0.37,1.53c0,0.68,0.55,1.2,1.38,1.2
	c1.04,0,1.79-1.25,1.79-2.55c0-2.03-1.38-3.76-4.34-3.76c-3.93,0-7.66,2.69-7.66,7.97C78.15,12.02,81.01,14.95,85.27,14.95z
	 M100.86,14.95c1.44,0,2.05-0.72,2.4-1.37c0.22-0.43,0.24-0.81-0.08-1.07c-0.31-0.26-0.72-0.28-0.98,0c-0.18,0.2-0.42,0.31-0.7,0.31
	c-0.35,0-0.63-0.29-0.65-0.64c0-2.21,0.18-3.6,0.18-6c0-0.67-0.54-1.2-1.2-1.2c-0.39,0-0.72,0.17-0.94,0.44
	c-0.76-0.46-1.73-0.63-2.56-0.63c-1.7,0-4.61,1.57-4.61,5.35c0,2.77,1.47,4.8,3.69,4.8c1.59,0,2.55-0.68,3.19-1.31
	C99.05,14.41,99.9,14.95,100.86,14.95z M96.06,12.55c-1.05,0-1.75-0.83-1.75-2.4c0-2.31,1.18-3.04,2.4-3.04
	c1.2,0,1.75,0.37,1.75,0.37l-0.09,2.95C98.33,11.35,97.74,12.55,96.06,12.55z M104.18,1.57c0,0.7,0.46,1.27,1.09,1.48
	c-0.18,0.7-0.5,1.14-0.68,1.33c-0.29,0.28-0.31,0.78,0,1.04c0.31,0.26,0.74,0.28,1.04,0c0.3-0.28,1.69-1.94,1.69-3.84
	c0-0.87-0.7-1.57-1.57-1.57C104.89,0,104.18,0.7,104.18,1.57z M124.03,1.94c0,1.13,0.31,2.46-0.09,4.61
	c-0.52,2.77-2.32,5.55-4.46,5.93c0.79-8.73-0.18-12.29-4.08-12.29c-1.49,0-2.4,0.61-2.92,1.77c-0.19,0.44-0.02,0.81,0.29,1.01
	c0.37,0.24,0.83,0.11,1.09-0.22c0.17-0.22,0.35-0.3,0.59-0.3c1.33,0,2.66,2.11,2.66,11.39c0,0.63,0.53,1.11,1.11,1.11
	c5.35,0,8.95-6.87,8.95-13.01c0-0.87-0.7-1.57-1.57-1.57C124.73,0.37,124.03,1.07,124.03,1.94z M133.08,13.01
	c-1.29,0-2.23-0.61-2.6-1.72c0.44,0.05,1.03,0.09,1.68,0.09c3.21,0,4.43-1.77,4.43-3.27c0-2.01-1.48-3.32-3.88-3.32
	c-2.91,0-4.98,1.97-4.98,5.35c0,2.66,2.22,4.8,5.35,4.8c2.47,0,4.25-1.37,4.25-2.66c0-0.37-0.33-0.74-0.78-0.74
	c-0.24,0-0.46,0.11-0.61,0.33C135.41,12.64,134.65,13.01,133.08,13.01z M132.71,7.01c0.61,0,1.11,0.5,1.11,1.11
	c0,0.85-0.63,1.64-2.03,1.64c-0.61,0-1.13-0.06-1.46-0.11C130.48,7.81,131.51,7.01,132.71,7.01z M143.24,12.92
	c-1.38,0-2.49-1.11-2.49-2.77c0-2.21,1.11-3.14,2.4-3.14c0.74,0,1.01,0.7,1.53,0.7c0.87,0,1.36-0.59,1.36-1.26
	c0-0.31-0.07-0.61-0.35-0.85c-0.5-0.44-1.31-0.81-2.55-0.81c-2.92,0-4.99,1.97-4.99,5.35c0,2.66,1.85,4.8,4.62,4.8
	c2.27,0,3.65-1.2,4.17-2.42c0.18-0.44,0-0.79-0.37-1c-0.35-0.17-0.72-0.05-0.94,0.26C145.1,12.55,144.29,12.92,143.24,12.92z
	 M152.66,12.92c-1.38,0-2.49-1.11-2.49-2.77c0-2.21,1.11-3.14,2.4-3.14c0.74,0,1.02,0.7,1.53,0.7c0.87,0,1.37-0.59,1.37-1.26
	c0-0.31-0.08-0.61-0.35-0.85c-0.5-0.44-1.31-0.81-2.55-0.81c-2.91,0-4.99,1.97-4.99,5.35c0,2.66,1.85,4.8,4.62,4.8
	c2.27,0,3.65-1.2,4.17-2.42c0.18-0.44,0-0.79-0.37-1c-0.35-0.17-0.72-0.05-0.94,0.26C154.52,12.55,153.71,12.92,152.66,12.92z
	 M166.04,14.95c1.44,0,2.05-0.72,2.4-1.37c0.22-0.43,0.24-0.81-0.07-1.07c-0.31-0.26-0.72-0.28-0.98,0c-0.18,0.2-0.43,0.31-0.7,0.31
	c-0.35,0-0.65-0.29-0.65-0.64c0-2.21,0.18-2.95,0.18-4.43c0-0.81-0.33-2.95-3.14-2.95c-1,0-2.17,0.4-3.04,1.29
	c0-1.38,0.09-3.17,0.09-4.71c0-0.76-0.63-1.38-1.39-1.38c-0.76,0-1.38,0.63-1.38,1.38c0,1.57,0.18,3.42,0.18,8.77
	c0,0.92-0.18,2.49-0.18,3.32c0,0.72,0.57,1.29,1.29,1.29c0.72,0,1.29-0.57,1.29-1.29V9.6c0-1.87,1.35-2.49,2.49-2.49
	c0.91,0,1.2,0.57,1.2,1.2c0,1.85-0.18,2.95-0.18,4.06C163.46,13.79,164.62,14.95,166.04,14.95z M169.28,2.12
	c0,0.87,0.7,1.57,1.57,1.57c0.87,0,1.57-0.7,1.57-1.57c0-0.87-0.7-1.57-1.57-1.57C169.98,0.55,169.28,1.25,169.28,2.12z
	 M171.97,14.95c1.44,0,2.05-0.72,2.4-1.37c0.22-0.43,0.24-0.81-0.08-1.07c-0.31-0.26-0.72-0.28-0.98,0c-0.18,0.2-0.43,0.31-0.7,0.31
	c-0.35,0-0.65-0.29-0.65-0.64c0-2.21,0.19-3.6,0.19-6c0-0.76-0.63-1.38-1.39-1.38c-0.76,0-1.38,0.63-1.38,1.38
	c0,0,0.18,2.4,0.18,3.97c0,0.92-0.09,1.57-0.09,2.21C169.48,13.79,170.55,14.95,171.97,14.95z M183.97,14.95
	c1.44,0,2.05-0.72,2.4-1.37c0.22-0.43,0.24-0.81-0.08-1.07c-0.31-0.26-0.72-0.28-0.98,0c-0.18,0.2-0.43,0.31-0.7,0.31
	c-0.35,0-0.63-0.29-0.65-0.64c0-2.21,0.19-3.6,0.19-6c0-0.67-0.54-1.2-1.2-1.2c-0.39,0-0.72,0.17-0.94,0.44
	c-0.76-0.46-1.74-0.63-2.57-0.63c-1.7,0-4.62,1.57-4.62,5.35c0,2.77,1.48,4.8,3.69,4.8c1.59,0,2.55-0.68,3.19-1.31
	C182.16,14.41,183.01,14.95,183.97,14.95z M179.17,12.55c-1.05,0-1.75-0.83-1.75-2.4c0-2.31,1.18-3.04,2.4-3.04
	c1.2,0,1.75,0.37,1.75,0.37l-0.09,2.95C181.44,11.35,180.85,12.55,179.17,12.55z M68.58,9.87c0,1.12-0.91,2.03-2.02,2.03
	c-1.12,0-2.03-0.91-2.03-2.03c0-1.12,0.91-2.02,2.03-2.02C67.67,7.85,68.58,8.75,68.58,9.87z M202.44,9.87
	c0,1.12-0.91,2.03-2.02,2.03c-1.12,0-2.02-0.91-2.02-2.03c0-1.12,0.91-2.02,2.02-2.02C201.53,7.85,202.44,8.75,202.44,9.87z
	 M78.42,134.76h1.44v-6.8h-1.44v-0.85h4.21v0.85h-1.44v6.8h1.44v0.85h-4.21V134.76z M83.39,134.76h1.08v-7.1h-1.08v-0.93h2.29v8.03
	h1.07v0.85h-3.36V134.76z M92.43,133.4c-0.29,0-0.53-0.04-0.78-0.04c-0.41,0-0.62,0.27-0.62,0.52c0,0.31,0.22,0.52,0.87,0.52h1.56
	c1.36,0,1.89,0.61,1.89,1.44c0,1.05-1.01,1.94-3.08,1.94c-1.59,0-2.61-0.56-2.61-1.33c0-0.54,0.5-1.06,1.24-1.15v-0.06
	c-0.7-0.23-0.94-0.62-0.94-1.05c0-0.44,0.49-0.93,1.11-1.06c-0.65-0.31-1.06-0.8-1.06-1.59c0-1.24,1.05-1.94,2.42-1.94
	c0.32,0,0.65,0.05,0.93,0.14c0.39-0.66,0.96-1.15,1.66-1.15c0.5,0,0.84,0.31,0.84,0.74c0,0.36-0.26,0.65-0.6,0.65
	c-0.35,0-0.56-0.21-0.56-0.53c0-0.04,0-0.09,0.01-0.14c-0.23-0.05-0.62,0.26-0.84,0.66c0.58,0.34,0.96,0.87,0.96,1.51
	C94.84,132.72,93.81,133.4,92.43,133.4z M94.3,136.15c0-0.41-0.23-0.7-0.9-0.7h-1.45c-0.78,0-1.14,0.27-1.14,0.8
	c0,0.44,0.29,0.87,1.55,0.87C93.5,137.12,94.3,136.74,94.3,136.15z M93.57,131.49c0-0.75-0.42-1.3-1.19-1.3
	c-0.74,0-1.11,0.4-1.11,1.32c0,0.92,0.45,1.3,1.2,1.3C93.2,132.81,93.57,132.37,93.57,131.49z M96.72,133.84v-3.3h-0.95v-0.85h2.16
	v3.71c0,0.45,0.09,0.83,0.31,1.05c0.15,0.15,0.38,0.25,0.67,0.25c0.72,0,1.54-0.71,1.54-1.9v-2.25h-0.98v-0.85h2.2v5.07h0.94v0.85
	h-2.13v-1.5c-0.67,1.12-1.37,1.58-2.23,1.58C97.32,135.69,96.72,135.01,96.72,133.84z M103.42,133.49h0.79
	c0.33,0.95,1.06,1.61,1.89,1.61c0.7,0,1-0.35,1-0.83c0-0.52-0.4-0.76-1.57-1.09c-1.42-0.4-2.01-0.89-2.01-1.84
	c0-0.96,0.83-1.76,2.04-1.76c0.61,0,1.15,0.23,1.44,0.69l0.13-0.69h0.76v2.03h-0.78c-0.4-0.87-0.78-1.4-1.58-1.4
	c-0.45,0-0.92,0.26-0.92,0.75c0,0.52,0.45,0.79,1.51,1.07c1.37,0.38,2.02,0.82,2.02,1.82c0,0.89-0.79,1.86-2.12,1.86
	c-0.74,0-1.35-0.31-1.72-0.78l-0.14,0.78h-0.75V133.49z M111.01,128.15v1.61h1.94v0.79h-1.94v3.49c0,0.58,0.17,0.87,0.71,0.87
	c0.36,0,0.65-0.34,0.91-1.02l0.58,0.25c-0.33,1.14-1.02,1.6-1.85,1.6c-1.03,0-1.57-0.61-1.57-1.58v-3.61h-1.16v-0.79h1.16v-1.48
	L111.01,128.15z M113.7,132.68c0-1.79,1.19-3.09,2.96-3.09c1.83,0,2.95,1.24,2.95,3.04c0,1.81-1.19,3.1-2.95,3.1
	C114.81,135.73,113.7,134.49,113.7,132.68z M118.26,132.65c0-1.63-0.63-2.37-1.67-2.37c-1.02,0-1.55,0.74-1.55,2.37
	c0,1.63,0.63,2.38,1.67,2.38C117.72,135.03,118.26,134.28,118.26,132.65z M122.97,134.76h1.07v-4.22h-1.07v-0.85h2.29v5.07h1.08
	v0.85h-3.36V134.76z M123.73,127.61c0-0.52,0.33-0.88,0.84-0.88c0.5,0,0.84,0.34,0.84,0.85c0,0.52-0.33,0.87-0.84,0.87
	C124.06,128.45,123.73,128.13,123.73,127.61z M126.98,134.76h0.95v-4.22h-0.95v-0.85h2.14v1.5c0.67-1.11,1.37-1.58,2.22-1.58
	c0.94,0,1.58,0.69,1.58,1.85v3.3h0.95v0.85h-3.03v-0.85h0.87v-2.86c0-0.44-0.1-0.81-0.32-1.03c-0.17-0.17-0.4-0.26-0.7-0.26
	c-0.72,0-1.54,0.71-1.54,1.9v2.25h0.87v0.85h-3.03V134.76z M136.86,134.76h0.94v-4.22h-1.17v-0.79h1.17v-0.27
	c0-2.04,1.32-2.83,2.51-2.83c1.06,0,1.67,0.52,1.67,1.16c0,0.41-0.29,0.8-0.71,0.8c-0.46,0-0.79-0.26-0.79-0.8
	c0-0.1,0.04-0.3,0.11-0.43c-0.11-0.06-0.24-0.1-0.46-0.1c-0.66,0-1.11,0.45-1.11,2.13v0.34h1.71v0.79h-1.71v4.22h1.34v0.85h-3.5
	V134.76z M142.65,132.73c0.04,1.46,0.67,2.19,1.81,2.19c0.72,0,1.27-0.31,1.63-1.1h0.62c-0.34,1.27-1.27,1.91-2.57,1.91
	c-1.81,0-2.83-1.31-2.83-3.01c0-1.77,1.23-3.13,2.91-3.13c1.77,0,2.56,1.58,2.52,3.14H142.65z M142.67,132.12h2.83
	c-0.09-1.1-0.47-1.85-1.37-1.85C143.31,130.27,142.77,130.79,142.67,132.12z M147.63,134.76h0.95v-4.22h-0.95v-0.85h2.13v1.37
	c0.3-0.99,1.07-1.45,1.75-1.45c0.66,0,1.03,0.45,1.03,1.01c0,0.45-0.34,0.84-0.78,0.84c-0.45,0-0.81-0.27-0.81-0.76
	c0-0.06,0.01-0.14,0.03-0.22c-0.58-0.03-0.99,0.63-1.19,1.41v2.87h1.13v0.85h-3.29V134.76z M161.05,129.62
	c0.95,0,1.52,0.69,1.52,1.85v3.3h0.94v0.85h-2.96v-0.85h0.8v-2.86c0-0.46-0.09-0.84-0.31-1.06c-0.15-0.16-0.36-0.23-0.65-0.23
	c-0.65,0-1.49,0.71-1.49,1.9v2.25h0.8v0.85h-2.82v-0.85h0.8v-2.86c0-0.46-0.09-0.84-0.31-1.06c-0.16-0.16-0.36-0.23-0.65-0.23
	c-0.66,0-1.49,0.71-1.49,1.9v2.25h0.8v0.85h-2.96v-0.85h0.94v-4.22h-0.94v-0.85h2.13v1.5c0.67-1.11,1.4-1.58,2.17-1.58
	c0.83,0,1.41,0.45,1.49,1.51C159.57,130.04,160.27,129.62,161.05,129.62z M165.5,132.73c0.04,1.46,0.67,2.19,1.81,2.19
	c0.72,0,1.27-0.31,1.63-1.1h0.62c-0.33,1.27-1.27,1.91-2.57,1.91c-1.81,0-2.84-1.31-2.84-3.01c0-1.77,1.23-3.13,2.91-3.13
	c1.77,0,2.56,1.58,2.52,3.14H165.5z M165.52,132.12h2.83c-0.09-1.1-0.46-1.85-1.37-1.85C166.16,130.27,165.62,130.79,165.52,132.12z
	 M170.48,134.76h0.95v-4.22h-0.95v-0.85h2.14v1.5c0.67-1.11,1.37-1.58,2.22-1.58c0.94,0,1.58,0.69,1.58,1.85v3.3h0.95v0.85h-3.03
	v-0.85h0.87v-2.86c0-0.44-0.1-0.81-0.33-1.03c-0.16-0.17-0.4-0.26-0.7-0.26c-0.72,0-1.54,0.71-1.54,1.9v2.25h0.87v0.85h-3.03V134.76
	z M179.95,128.15v1.61h1.94v0.79h-1.94v3.49c0,0.58,0.17,0.87,0.71,0.87c0.36,0,0.65-0.34,0.91-1.02l0.58,0.25
	c-0.34,1.14-1.02,1.6-1.85,1.6c-1.03,0-1.56-0.61-1.56-1.58v-3.61h-1.17v-0.79h1.17v-1.48L179.95,128.15z M182.63,132.68
	c0-1.79,1.19-3.09,2.96-3.09c1.83,0,2.95,1.24,2.95,3.04c0,1.81-1.19,3.1-2.95,3.1C183.74,135.73,182.63,134.49,182.63,132.68z
	 M187.2,132.65c0-1.63-0.63-2.37-1.67-2.37c-1.02,0-1.55,0.74-1.55,2.37c0,1.63,0.63,2.38,1.67,2.38
	C186.65,135.03,187.2,134.28,187.2,132.65z"/>
</svg>
