<svg id="Isolation_Mode" data-name="Isolation Mode" xmlns="http://www.w3.org/2000/svg" viewBox="0 0 266.97 139.07"><title>logo</title><rect x="2.62" y="39.39" width="261.73" height="62.81" style="fill:#3f3120"/><path d="M267,104.82H0v-68H267ZM5.23,99.59h256.5V42H5.23ZM57.55,81.93H50.42V59.58h7c5.4,0,6.31,4.17,6.31,6.24v.38a5.43,5.43,0,0,1-2.26,4.18A5.5,5.5,0,0,1,64,74.87v.72C64,77.63,62.91,81.93,57.55,81.93Zm2-16.07a2,2,0,0,0-2.26-2.23H54.5v4.8h3c.92,0,2.08-.31,2.08-2.29Zm.37,9a2.14,2.14,0,0,0-2.32-2.44H54.5v5.4h3A2.21,2.21,0,0,0,60,75.52Zm10.43,7V59.58H83.32v4.05H74.43v4.52h8.23v4H74.43v5.68h8.89v4.05Zm18.86,0V59.58h12.94v4.05H93.3v4.52h8.23v4H93.3v5.68h8.89v4.05Zm28.82,0-4-8.64H112.2v8.64h-4.08V59.58h7a6.07,6.07,0,0,1,6.5,6.34v1a6.33,6.33,0,0,1-3.36,5.81l4.39,9.23ZM117.5,66a2.21,2.21,0,0,0-2.45-2.38H112.2v5.62h2.92a2.15,2.15,0,0,0,2.38-2.39ZM134,82.21c-4.18,0-6.88-3-6.88-7.06h4a2.71,2.71,0,0,0,2.79,3c1.89,0,3.08-1,3.08-2.48a2.64,2.64,0,0,0-1.54-2.35c-.85-.51-2.35-1.26-4.83-2.51a6.05,6.05,0,0,1-3.2-5.34c0-3.58,2.7-6.09,6.56-6.09a6.58,6.58,0,0,1,6.78,6.9h-4.12A2.59,2.59,0,0,0,134,63.41a2.22,2.22,0,0,0-2.51,2.13,2.09,2.09,0,0,0,1.31,1.82c2.7,1.38,3.74,1.89,4.59,2.36a6.54,6.54,0,0,1,3.64,6C141.05,79.48,138,82.21,134,82.21Zm20.37-18.55V81.93h-4.05V63.66h-5V59.58h14.06v4.08Zm20.15,18.27-4-8.64h-1.82v8.64h-4.08V59.58h7a6.07,6.07,0,0,1,6.5,6.34v1a6.33,6.33,0,0,1-3.36,5.81l4.4,9.23ZM174,66a2.21,2.21,0,0,0-2.45-2.38h-2.86v5.62h2.92A2.16,2.16,0,0,0,174,66.86Zm16.92,16.2a6.46,6.46,0,0,1-6.72-6.5v-10c0-2.07,1.35-6.31,6.75-6.31a6.41,6.41,0,0,1,6.72,6.34v10A6.4,6.4,0,0,1,190.87,82.21Zm2.64-16.42a2.33,2.33,0,0,0-2.61-2.35c-.88,0-2.7.28-2.7,2.35v9.92a2.4,2.4,0,0,0,2.7,2.42,2.36,2.36,0,0,0,2.61-2.42Zm18-2.13V81.93h-4.05V63.66h-5V59.58h14.06v4.08Z" style="fill:#bbb8b8"/><path d="M261.73,42v1H6.28V99.59h-1V42ZM84.36,60.62h-1v3H74.43v4.52h1V64.67h8.88ZM103.23,83H90.3v-1h11.89v-3h1Zm0-18.3H94.35v3.48h-1V63.63h8.89v-3h1ZM93.3,72.2h8.23v-3h1v4H94.35v4.64h-1Zm20,10.77h-4.09v-1h3V73.29H114l.49,1h-1.26Zm6-9.23L123.7,83h-4.59l-.48-1h4l-4.39-9.23a6.33,6.33,0,0,0,3.36-5.81v-1a7,7,0,0,0-1.28-4,6.54,6.54,0,0,1,2.32,5v1A6.31,6.31,0,0,1,119.3,73.74ZM74.43,72.2h8.23v-3h1v4H75.48v4.64h-1Zm-15-7.37a3.1,3.1,0,0,0-1-.16H55.55v3.76h-1v-4.8h2.83A2,2,0,0,1,59.41,64.83ZM54.5,72.45h3.14a2.1,2.1,0,0,1,2.11,1.24,2.74,2.74,0,0,0-1.07-.2H55.55v4.36h-1ZM58.59,83H51.47v-1h6.08c5.36,0,6.43-4.3,6.43-6.34v-.72a5.35,5.35,0,0,0-1.17-3.18A5.48,5.48,0,0,1,65,75.91v.72C65,78.67,64,83,58.59,83Zm25.77,0H71.43v-1H83.32v-3h1Zm32.93-18.08a3.18,3.18,0,0,0-1.19-.22h-2.85v4.58h-1V63.63h2.85A2.3,2.3,0,0,1,117.29,64.89Zm-52.55,2v.38a5.38,5.38,0,0,1-2.18,4.1,5.47,5.47,0,0,0-1.12-1A5.43,5.43,0,0,0,63.7,66.2v-.38a6.92,6.92,0,0,0-1.24-4A6.33,6.33,0,0,1,64.74,66.87ZM212.57,83h-4v-1h3V63.66h5v-3h1V64.7h-5ZM136.33,64.75a2.77,2.77,0,0,0-1.27-.3,2.22,2.22,0,0,0-2.51,2.14,1.73,1.73,0,0,0,.18.71,2,2,0,0,1-1.22-1.76A2.22,2.22,0,0,1,134,63.41,2.46,2.46,0,0,1,136.33,64.75Zm37.4.14a3.16,3.16,0,0,0-1.18-.22h-2.86v4.58h-1.05V63.63h2.86A2.29,2.29,0,0,1,173.73,64.89Zm-4,18.08h-4.08v-1h3V73.29h1.82l.5,1h-1.27Zm6.06-9.23L180.14,83h-4.58l-.49-1h4l-4.4-9.23a6.33,6.33,0,0,0,3.36-5.81v-1a7,7,0,0,0-1.28-4,6.56,6.56,0,0,1,2.33,5v1A6.31,6.31,0,0,1,175.75,73.74Zm31.73-9h-3.95v-1h3.95ZM186.62,80.83a6.56,6.56,0,0,0,4.25,1.38,6.4,6.4,0,0,0,6.75-6.47v-10a6.73,6.73,0,0,0-1.4-3.92,6.66,6.66,0,0,1,2.44,5v10a6.4,6.4,0,0,1-6.74,6.46A6.28,6.28,0,0,1,186.62,80.83Zm6.67-16.07a3.35,3.35,0,0,0-1.34-.28,2.38,2.38,0,0,0-2.7,2.36v9.92a2.57,2.57,0,0,0,.22,1.07,2.14,2.14,0,0,1-1.27-2.12V65.79c0-2.07,1.82-2.35,2.7-2.35A2.5,2.5,0,0,1,193.29,64.76Zm-62,11.43h.9a3.43,3.43,0,0,0,.38,1.64A2.54,2.54,0,0,1,131.31,76.19Zm-1.62,4.6a6.84,6.84,0,0,0,4.3,1.42c4,0,7.06-2.73,7.06-6.47a6.58,6.58,0,0,0-1.37-4.15,6.45,6.45,0,0,1,2.41,5.2c0,3.73-3.07,6.46-7.06,6.46A6.62,6.62,0,0,1,129.69,80.79Zm.11-10.53a5.52,5.52,0,0,0,.86.56c2.48,1.25,4,2,4.83,2.51a3.19,3.19,0,0,1,1.21,1.15c-.06,0-.1-.08-.16-.11-.85-.5-2.36-1.25-4.84-2.51A5.69,5.69,0,0,1,129.8,70.26ZM155.4,83h-4v-1h3V63.66h5v-3h1.05V64.7h-5ZM141.84,67.34h-4.11a3.8,3.8,0,0,0-.15-1h3.22a7.09,7.09,0,0,0-1.49-4.44A6.81,6.81,0,0,1,141.84,67.34Zm8.47-2.64h-3.94v-1h3.94Z"/><path d="M219.14,29.12H47.83V27.28H219.14Zm0-3.24H47.83v.52H219.14Zm0,86.6H47.83v1.84H219.14Zm0,2.72H47.83v.52H219.14ZM85.27,15a6.62,6.62,0,0,0,5.63-2.7.82.82,0,0,0,.19-.49.88.88,0,0,0-.84-.82.77.77,0,0,0-.53.23,5.15,5.15,0,0,1-4.17,1.56c-2.22,0-4.19-1.23-4.19-4.57,0-4,2.34-5.8,4.13-5.8,1.48,0,1.85.63,1.85,1.4,0,.56-.37.85-.37,1.53A1.25,1.25,0,0,0,88.35,6.5c1,0,1.79-1.26,1.79-2.55,0-2-1.38-3.76-4.33-3.76-3.94,0-7.66,2.69-7.66,8C78.15,12,81,15,85.27,15Zm15.59,0a2.46,2.46,0,0,0,2.4-1.37.81.81,0,0,0-.08-1.07.69.69,0,0,0-1,0,.93.93,0,0,1-.7.32.66.66,0,0,1-.64-.65c0-2.21.18-3.6.18-6A1.2,1.2,0,0,0,99.84,5a1.17,1.17,0,0,0-.94.45,4.82,4.82,0,0,0-7.18,4.72c0,2.77,1.48,4.8,3.69,4.8a4.3,4.3,0,0,0,3.19-1.31A2.64,2.64,0,0,0,100.86,15Zm-4.8-2.4c-1,0-1.76-.83-1.76-2.4,0-2.31,1.19-3,2.4-3a3.4,3.4,0,0,1,1.75.36l-.09,3A2.13,2.13,0,0,1,96.06,12.55Zm8.12-11A1.54,1.54,0,0,0,105.27,3a3,3,0,0,1-.68,1.33.71.71,0,0,0,0,1,.78.78,0,0,0,1,0,6.2,6.2,0,0,0,1.69-3.84,1.57,1.57,0,1,0-3.14,0ZM124,1.94a18.2,18.2,0,0,1-.09,4.61c-.52,2.77-2.33,5.56-4.47,5.93.79-8.74-.18-12.29-4.08-12.29A2.84,2.84,0,0,0,112.48,2a.77.77,0,0,0,.29,1,.82.82,0,0,0,1.09-.22.67.67,0,0,1,.59-.3c1.33,0,2.66,2.11,2.66,11.39A1.12,1.12,0,0,0,118.22,15c5.35,0,9-6.87,9-13a1.57,1.57,0,0,0-3.14,0ZM133.08,13a2.53,2.53,0,0,1-2.6-1.72,13,13,0,0,0,1.68.1c3.21,0,4.43-1.77,4.43-3.27,0-2-1.48-3.32-3.88-3.32-2.91,0-5,2-5,5.35,0,2.66,2.22,4.8,5.35,4.8,2.47,0,4.24-1.37,4.24-2.66a.77.77,0,0,0-.77-.74.71.71,0,0,0-.61.34C135.41,12.64,134.65,13,133.08,13Zm-.37-6a1.11,1.11,0,0,1,1.11,1.11c0,.85-.63,1.64-2,1.64a8.68,8.68,0,0,1-1.46-.11C130.48,7.81,131.51,7,132.71,7Zm10.53,5.91a2.55,2.55,0,0,1-2.49-2.77c0-2.21,1.1-3.14,2.4-3.14.74,0,1,.7,1.53.7A1.26,1.26,0,0,0,146,6.46a1,1,0,0,0-.35-.85,3.73,3.73,0,0,0-2.54-.81c-2.92,0-5,2-5,5.35a4.57,4.57,0,0,0,4.62,4.8A4.3,4.3,0,0,0,147,12.53a.76.76,0,0,0-1.31-.74A2.76,2.76,0,0,1,143.24,12.92Zm9.42,0a2.56,2.56,0,0,1-2.5-2.77c0-2.21,1.11-3.14,2.4-3.14.74,0,1,.7,1.54.7a1.26,1.26,0,0,0,1.36-1.25,1,1,0,0,0-.35-.85,3.74,3.74,0,0,0-2.55-.81c-2.91,0-5,2-5,5.35A4.57,4.57,0,0,0,152.2,15a4.29,4.29,0,0,0,4.16-2.42.75.75,0,0,0-1.3-.74A2.76,2.76,0,0,1,152.66,12.92ZM166,15a2.46,2.46,0,0,0,2.4-1.37c.22-.42.24-.81-.07-1.07a.69.69,0,0,0-1,0,.94.94,0,0,1-.7.32.66.66,0,0,1-.65-.65c0-2.21.19-2.95.19-4.43a2.83,2.83,0,0,0-3.14-2.95A4.35,4.35,0,0,0,160,6.09c0-1.38.1-3.17.1-4.71a1.39,1.39,0,0,0-2.77,0c0,1.57.18,3.42.18,8.77,0,.92-.18,2.49-.18,3.32a1.29,1.29,0,0,0,2.58,0V9.6a2.33,2.33,0,0,1,2.49-2.49,1.08,1.08,0,0,1,1.2,1.19c0,1.85-.18,3-.18,4.07A2.59,2.59,0,0,0,166,15Zm3.24-12.83A1.57,1.57,0,1,0,170.85.55,1.57,1.57,0,0,0,169.28,2.12ZM172,15a2.46,2.46,0,0,0,2.4-1.37c.22-.42.24-.81-.07-1.07a.69.69,0,0,0-1,0,.94.94,0,0,1-.7.32.66.66,0,0,1-.65-.65c0-2.21.19-3.6.19-6a1.39,1.39,0,0,0-2.77,0s.18,2.4.18,4c0,.92-.09,1.57-.09,2.22A2.51,2.51,0,0,0,172,15Zm12,0a2.46,2.46,0,0,0,2.4-1.37c.22-.42.24-.81-.07-1.07a.69.69,0,0,0-1,0,.94.94,0,0,1-.7.32.68.68,0,0,1-.65-.65c0-2.21.19-3.6.19-6A1.2,1.2,0,0,0,183,5a1.17,1.17,0,0,0-.94.45,4.83,4.83,0,0,0-7.19,4.72c0,2.77,1.48,4.8,3.7,4.8a4.34,4.34,0,0,0,3.19-1.31A2.61,2.61,0,0,0,184,15Zm-4.8-2.4c-1,0-1.75-.83-1.75-2.4,0-2.31,1.18-3,2.4-3a3.4,3.4,0,0,1,1.75.36l-.09,3A2.14,2.14,0,0,1,179.17,12.55ZM68.58,9.87a2,2,0,1,1-2-2A2,2,0,0,1,68.58,9.87Zm133.86,0a2,2,0,1,1-2-2A2,2,0,0,1,202.44,9.87Z" style="fill:#3f3120"/><path d="M63.33,132.72h1.15c1,2,1.76,2.75,3.35,2.75,1.2,0,1.9-.61,1.9-1.6,0-1.15-1.23-1.46-2.73-1.86-1.7-.44-3.54-1-3.54-3.26A3.29,3.29,0,0,1,67,125.56a3.44,3.44,0,0,1,2.62,1.14l.34-1.09h1.2v3.68H70c-.83-1.93-1.72-2.59-3-2.59a1.48,1.48,0,0,0-1.65,1.49c0,1.26,1.3,1.55,2.82,1.94s3.46.92,3.46,3.12a3.44,3.44,0,0,1-3.7,3.36,4,4,0,0,1-3-1.2l-.37,1.15H63.33Z" style="fill:#3f3120"/><path d="M73.7,134v-3.9H72.58v-1.19h3v4.64a1.71,1.71,0,0,0,.37,1.24,1.07,1.07,0,0,0,.77.27A1.93,1.93,0,0,0,78.4,133v-2.85H77.25v-1.19h3v6.23h1.13v1.18H78.49v-1.9c-.71,1.33-1.54,2-2.73,2C74.4,136.48,73.7,135.52,73.7,134Z" style="fill:#3f3120"/><path d="M82.51,133.73H83.6A2.85,2.85,0,0,0,86,135.58c.78,0,1.12-.36,1.12-.89s-.45-.9-1.92-1.28c-1.78-.48-2.56-1.09-2.56-2.32a2.39,2.39,0,0,1,2.62-2.28,2.32,2.32,0,0,1,1.94.87l.19-.87h1.07v2.55H87.38c-.54-1-1.12-1.65-2-1.65-.57,0-1,.3-1,.85s.51.88,1.86,1.23c1.68.45,2.61,1,2.61,2.34A2.52,2.52,0,0,1,86,136.51a2.86,2.86,0,0,1-2.26-1l-.21,1H82.51Z" style="fill:#3f3120"/><path d="M89.75,135.17h1.13v-8.6H89.75v-1.25h3v5.4a3,3,0,0,1,2.66-1.89c1.36,0,2.09,1,2.09,2.43v3.91h1.14v1.18h-4v-1.18h1v-3.46a1.65,1.65,0,0,0-.39-1.2,1,1,0,0,0-.8-.3,1.92,1.92,0,0,0-1.71,2.12v2.84h1v1.18h-4Z" style="fill:#3f3120"/><path d="M99.6,135.17h1.28v-5H99.6v-1.19h3.16v6.23H104v1.18H99.6Zm.9-8.73a1.17,1.17,0,0,1,1.22-1.21,1.12,1.12,0,0,1,1.2,1.17,1.21,1.21,0,0,1-2.42,0Z" style="fill:#3f3120"/><path d="M110,132.83c.06,1.81.81,2.55,2.14,2.55a1.93,1.93,0,0,0,1.92-1.33h1a3,3,0,0,1-3.29,2.46,3.53,3.53,0,0,1-3.72-3.78,3.74,3.74,0,0,1,3.75-3.92c2.34,0,3.39,1.88,3.31,4Zm0-.85h3.21c-.1-1.44-.55-2.22-1.56-2.22S110.13,130.35,110,132Z" style="fill:#3f3120"/><path d="M119.23,135.15h1.64V127h-1.64v-1.2h5.19V127h-1.49v3.31h4.52V127H126v-1.2h5.17V127h-1.63v8.13h1.63v1.2H126v-1.2h1.48v-3.7h-4.52v3.7h1.49v1.2h-5.19Z" style="fill:#3f3120"/><path d="M132.35,134.53a1.82,1.82,0,0,1,.55-1.33c.54-.55,1.33-.79,2.9-1,.91-.13,1-.14,1-.38v-.72c0-1-.45-1.32-1.41-1.32a2.07,2.07,0,0,0-1.12.28.91.91,0,0,1,.43.8.94.94,0,0,1-1,.92,1,1,0,0,1-1.08-1c0-1.25,1.51-1.94,3.24-1.94,1.92,0,2.81.85,2.81,2.4v3.59c0,.35.13.5.45.5s.4-.21.54-.66l.66.3c-.35,1.06-.91,1.49-1.79,1.49a1.37,1.37,0,0,1-1.49-1.41H137a2.6,2.6,0,0,1-2.42,1.44A2,2,0,0,1,132.35,134.53Zm4.49-.79v-1a2.68,2.68,0,0,1-.72.16c-1.38.23-1.8.48-1.8,1.33a1,1,0,0,0,1.11,1.11A1.5,1.5,0,0,0,136.84,133.74Z" style="fill:#3f3120"/><path d="M150.9,128.83c1.33,0,2,1,2,2.43v3.91H154v1.18h-3.89v-1.18h.9v-3.46a1.74,1.74,0,0,0-.37-1.23,1,1,0,0,0-.74-.27,2,2,0,0,0-1.63,2.12v2.84h.9v1.18h-3.67v-1.18h.9v-3.46a1.69,1.69,0,0,0-.36-1.23,1,1,0,0,0-.75-.27,1.94,1.94,0,0,0-1.63,2.12v2.84h.9v1.18h-3.89v-1.18h1.12v-5h-1.12v-1.19h2.91v1.91c.7-1.32,1.57-2,2.67-2a1.86,1.86,0,0,1,2,1.92C149,129.47,149.81,128.83,150.9,128.83Z" style="fill:#3f3120"/><path d="M155.59,126.57h-1.14v-1.25h3v5.11a2.73,2.73,0,0,1,2.42-1.62,2.56,2.56,0,0,1,1.92.74,4.2,4.2,0,0,1,1,3.09,4.33,4.33,0,0,1-1.07,3.06,2.88,2.88,0,0,1-2,.81A2.78,2.78,0,0,1,157.2,135l-.61,1.49h-1Zm5.15,6.08c0-1.69-.53-2.64-1.54-2.64s-1.84,1.2-1.84,2.81.82,2.54,1.86,2.54S160.74,134.42,160.74,132.65Z" style="fill:#3f3120"/><path d="M164.91,134v-3.9h-1.12v-1.19h3v4.64a1.66,1.66,0,0,0,.37,1.24,1,1,0,0,0,.76.27,1.93,1.93,0,0,0,1.7-2.11v-2.85h-1.15v-1.19h3v6.23h1.14v1.18H169.7v-1.9c-.7,1.33-1.54,2-2.72,2C165.62,136.48,164.91,135.52,164.91,134Z" style="fill:#3f3120"/><path d="M173.6,135.17h1.12v-5H173.6v-1.19h2.91v1.81a2.43,2.43,0,0,1,2.25-1.92,1.3,1.3,0,0,1,1.37,1.34,1.12,1.12,0,0,1-1.09,1.19,1,1,0,0,1-1.1-1,1.38,1.38,0,0,1,0-.2c-.59,0-1.1.67-1.38,1.6v3.44H178v1.18H173.6Z" style="fill:#3f3120"/><path d="M184.2,133.57c-.34,0-.69,0-1,0-.51,0-.77.3-.77.61s.27.59,1.1.59h2c1.81,0,2.51.77,2.51,1.86,0,1.39-1.28,2.49-4.14,2.49-2.16,0-3.36-.65-3.36-1.65,0-.68.64-1.28,1.63-1.42v-.08c-.88-.24-1.25-.75-1.25-1.33s.69-1.26,1.6-1.41a2,2,0,0,1-1.49-2c0-1.47,1.23-2.39,3.11-2.39a4.44,4.44,0,0,1,1.25.18,2.38,2.38,0,0,1,2.08-1.55c.77,0,1.18.44,1.18,1a.85.85,0,0,1-.86.89.72.72,0,0,1-.77-.76,1,1,0,0,1,0-.17c-.32,0-.7.32-1,.86a2.15,2.15,0,0,1,1.2,1.89C187.28,132.7,186.05,133.57,184.2,133.57Zm2.22,3.45c0-.44-.3-.76-1.18-.76h-1.86c-.93,0-1.35.33-1.35.91s.42,1,2,1S186.42,137.71,186.42,137Zm-1-5.82c0-1-.47-1.6-1.31-1.6s-1.24.49-1.24,1.61.48,1.59,1.33,1.59S185.43,132.27,185.43,131.2Z" style="fill:#3f3120"/><path d="M190.82,132.83c.06,1.81.81,2.55,2.14,2.55a1.93,1.93,0,0,0,1.92-1.33h1a3,3,0,0,1-3.29,2.46,3.53,3.53,0,0,1-3.72-3.78,3.74,3.74,0,0,1,3.75-3.92c2.34,0,3.39,1.88,3.31,4Zm0-.85H194c-.1-1.44-.55-2.22-1.56-2.22S191,130.35,190.84,132Z" style="fill:#3f3120"/><path d="M197.11,135.17h1.12v-5h-1.12v-1.19H200v1.81a2.42,2.42,0,0,1,2.24-1.92,1.31,1.31,0,0,1,1.38,1.34,1.13,1.13,0,0,1-1.09,1.19,1,1,0,0,1-1.11-1,.71.71,0,0,1,0-.2c-.6,0-1.11.67-1.38,1.6v3.44h1.39v1.18h-4.38Z" style="fill:#3f3120"/></svg>